<svg width="146" height="24" viewBox="0 0 146 24" fill="none" xmlns="http://www.w3.org/2000/svg">
<path d="M16.3906 12.0001L10.8296 5.85353L17.5351 0H1.17088C0.524478 0 0 0.524188 0 1.17059V17.5612C0 18.2076 0.524478 18.7318 1.17088 18.7318H3.51235V24L8.78059 18.7318H26.3418C26.9882 18.7318 27.5126 18.2076 27.5126 17.5612V1.39561L16.3906 12.0001ZM7.60971 14.7323L10.0977 6.43912L15.7685 12.732L7.60971 14.7323Z" fill="#EC6A06"/>
<path d="M45.563 11.25V17.2931H42.3914V11.25C42.3914 9.64275 41.9629 8.93557 40.7199 8.93557C39.4342 8.93557 38.6841 9.64275 38.6841 11.25V17.2931H35.5126V6.70691H38.6841V7.71409C39.4985 6.9212 40.6128 6.5569 41.5343 6.5569C44.513 6.5569 45.563 7.99268 45.563 11.25ZM52.2144 9.1713C50.9072 9.1713 49.8143 10.3285 49.8143 12.0214C49.8143 13.6929 50.9072 14.8501 52.2144 14.8501C53.5431 14.8501 54.636 13.6929 54.636 12.0214C54.636 10.3285 53.5431 9.1713 52.2144 9.1713ZM52.2144 6.5569C55.3217 6.5569 57.8075 8.89272 57.8075 12.0214C57.8075 15.1501 55.3217 17.4645 52.2144 17.4645C49.1286 17.4645 46.6427 15.1501 46.6427 12.0214C46.6427 8.89272 49.1286 6.5569 52.2144 6.5569ZM62.8303 12.7929C62.8303 13.5643 62.8089 14.8501 63.9875 14.8501C64.5661 14.8501 64.9304 14.6144 65.3375 14.3144V16.9288C64.8447 17.2074 64.2446 17.4645 63.6018 17.4645C60.8802 17.4645 59.6587 16.3073 59.6587 12.7929V9.32131H58.4801V6.70691H59.6587V3.66392H62.8303V6.70691H65.3375V9.32131H62.8303V12.7929ZM77.8392 12.0214V12.7286H70.296C70.296 13.9715 71.5604 14.8501 72.6104 14.8501C73.639 14.8501 74.5819 14.443 75.0748 13.5429L77.1963 15.493C76.3391 16.6502 75.0319 17.4645 72.6104 17.4645C69.1388 17.4645 67.0173 15.1501 67.0173 12.0214C67.0173 8.89272 69.0745 6.5569 72.4175 6.5569C75.7605 6.5569 77.8392 8.84986 77.8392 12.0214ZM70.3603 10.7142H74.5176C74.3462 9.70704 73.6176 9.1713 72.4175 9.1713C71.2604 9.1713 70.5532 9.79275 70.3603 10.7142ZM86.1193 17.2931L82.6905 12.9429C82.6048 13.0286 82.4548 13.1358 82.3262 13.2429V17.2931H79.1332V1.73526H82.3262V9.36417L85.3692 6.70691H90.1051L84.9835 10.9928C86.5479 12.9215 88.6051 15.4287 90.1051 17.2931H86.1193ZM101.557 12.0214V12.7286H94.0136C94.0136 13.9715 95.2779 14.8501 96.328 14.8501C97.3566 14.8501 98.2995 14.443 98.7924 13.5429L100.914 15.493C100.057 16.6502 98.7495 17.4645 96.328 17.4645C92.8564 17.4645 90.7349 15.1501 90.7349 12.0214C90.7349 8.89272 92.7921 6.5569 96.1351 6.5569C99.4781 6.5569 101.557 8.84986 101.557 12.0214ZM94.0779 10.7142H98.2352C98.0638 9.70704 97.3352 9.1713 96.1351 9.1713C94.9779 9.1713 94.2707 9.79275 94.0779 10.7142ZM113.351 12.0214V12.7286H105.808C105.808 13.9715 107.072 14.8501 108.122 14.8501C109.151 14.8501 110.094 14.443 110.587 13.5429L112.708 15.493C111.851 16.6502 110.544 17.4645 108.122 17.4645C104.651 17.4645 102.529 15.1501 102.529 12.0214C102.529 8.89272 104.587 6.5569 107.93 6.5569C111.273 6.5569 113.351 8.84986 113.351 12.0214ZM105.872 10.7142H110.03C109.858 9.70704 109.13 9.1713 107.93 9.1713C106.772 9.1713 106.065 9.79275 105.872 10.7142ZM125.467 12.0214C125.467 15.1501 123.389 17.4645 120.281 17.4645C119.638 17.4645 118.374 17.0788 117.881 16.5859V22.2647H114.71V6.70691H117.881V7.45694C118.331 6.9212 119.145 6.5569 120.067 6.5569C123.174 6.5569 125.467 8.89272 125.467 12.0214ZM122.274 12.0214C122.274 10.3285 121.181 8.957 119.853 8.957C119.038 8.957 118.245 9.55703 117.817 10.4142C117.624 10.8428 117.474 11.4428 117.474 12.0214C117.474 12.6215 117.603 13.1572 117.817 13.6072C118.267 14.4858 119.017 15.0644 119.853 15.0644C121.181 15.0644 122.274 13.6929 122.274 12.0214ZM137.326 12.0214V12.7286H129.783C129.783 13.9715 131.047 14.8501 132.097 14.8501C133.126 14.8501 134.069 14.443 134.562 13.5429L136.683 15.493C135.826 16.6502 134.519 17.4645 132.097 17.4645C128.626 17.4645 126.504 15.1501 126.504 12.0214C126.504 8.89272 128.561 6.5569 131.904 6.5569C135.247 6.5569 137.326 8.84986 137.326 12.0214ZM129.847 10.7142H134.004C133.833 9.70704 133.104 9.1713 131.904 9.1713C130.747 9.1713 130.04 9.79275 129.847 10.7142ZM145.563 6.85691L145.135 9.23559C144.342 8.89272 144.192 8.957 143.827 8.957C142.542 8.957 141.792 9.64275 141.792 11.3357V17.2931H138.62V6.70691H141.792V7.6498C142.199 6.9212 143.313 6.5569 144.02 6.5569C144.685 6.5569 145.07 6.57833 145.563 6.85691Z" fill="#201A18"/>
</svg>
